<svg width="900" height="172" viewBox="0 0 900 172" fill="none" xmlns="http://www.w3.org/2000/svg">
<path d="M133.8 0.570068H37.8101C17.1301 0.570068 0.370117 17.3301 0.370117 38.0101V134C0.370117 154.68 17.1301 171.44 37.8101 171.44H133.8C154.48 171.44 171.24 154.68 171.24 134V38.0001C171.24 17.3301 154.48 0.570068 133.8 0.570068ZM121.85 51.9401H112.65C107.66 44.2501 99.0302 38.86 88.5302 38.86C66.1302 38.86 52.3101 63.3201 63.8701 82.5001L87.8601 122.3C88.1601 122.8 88.9001 122.8 89.2001 122.3L103.11 99.22H112.3C115.4 99.22 117.32 102.61 115.72 105.27L96.6601 136.9L91.5801 145.33C90.2001 147.63 86.8701 147.63 85.4901 145.33L80.4201 136.91L51.9601 89.7001C34.8101 61.2401 55.3101 24.9601 88.5401 24.9601C104.86 24.9601 118.1 33.7 125.33 45.97C126.87 48.61 124.91 51.9401 121.85 51.9401ZM104.48 67.1801C104.48 75.9701 97.3601 83.0901 88.5701 83.0901C79.7801 83.0901 72.6601 75.9701 72.6601 67.1801C72.6601 58.3901 79.7801 51.2701 88.5701 51.2701C97.3601 51.2701 104.48 58.3901 104.48 67.1801Z" fill="#006BFF"/>
<path d="M234.13 100.28V123.03H222.28V48.9701C226.02 48.9701 231.71 48.9501 239.37 48.9201C247.02 48.8801 252.75 48.8701 256.56 48.8701C260.37 48.8701 263.86 49.4501 267.03 50.6201C270.2 51.7801 272.81 53.3501 274.86 55.3301C276.91 57.3001 278.65 59.5801 280.1 62.1501C281.55 64.7201 282.43 67.4201 282.74 70.2401C283.06 73.0601 283.06 75.9001 282.74 78.7601C282.42 81.6201 281.56 84.3301 280.15 86.9101C278.74 89.4801 276.99 91.7601 274.91 93.7301C272.83 95.7001 270.2 97.2901 267.03 98.4901C263.86 99.6901 260.36 100.29 256.56 100.29H234.13V100.28ZM234.13 89.3901H256.56C259.66 89.3901 262.36 88.6701 264.65 87.2201C266.94 85.7701 268.6 83.9401 269.62 81.7201C270.64 79.5001 271.15 77.1201 271.15 74.5801C271.15 72.0401 270.64 69.6601 269.62 67.4401C268.6 65.2201 266.94 63.3801 264.65 61.9401C262.36 60.4901 259.66 59.7701 256.56 59.7701H234.13V89.3901Z" fill="#006BFF"/>
<path d="M303.121 70.8702L303.861 77.7502C306.891 72.3902 312.011 69.7102 319.201 69.7102C324.491 69.7102 328.791 71.1902 332.111 74.1502L327.141 83.6702C324.531 81.5502 321.461 80.5002 317.941 80.5002C313.921 80.5002 310.571 81.7302 307.891 84.2002C305.211 86.6702 303.871 90.2002 303.871 94.7802V123.03H292.971V70.8702H303.121Z" fill="#006BFF"/>
<path d="M381.141 77.5901C386.181 82.7701 388.701 89.2501 388.701 97.0001C388.701 104.83 386.21 111.3 381.24 116.41C376.27 121.52 369.73 124.08 361.61 124.08C353.57 124.08 347.081 121.52 342.141 116.41C337.201 111.3 334.73 104.82 334.73 97.0001C334.73 89.1701 337.22 82.6801 342.19 77.5301C347.16 72.3801 353.63 69.8101 361.6 69.8101C369.59 69.8101 376.101 72.4001 381.141 77.5901ZM350.04 84.8401C347.11 88.1501 345.651 92.2101 345.651 97.0101C345.651 101.81 347.1 105.83 349.99 109.07C352.88 112.31 356.76 113.94 361.63 113.94C366.5 113.94 370.39 112.32 373.32 109.07C376.25 105.83 377.711 101.8 377.711 97.0101C377.711 92.2801 376.19 88.2501 373.16 84.9001C370.13 81.5501 366.28 79.8701 361.63 79.8701C356.83 79.8601 352.97 81.5201 350.04 84.8401Z" fill="#006BFF"/>
<path d="M429.871 96.3702H411.881V123.03H402.681V48.9702H436.321C444.221 48.9702 450.371 51.3003 454.781 55.9503C459.191 60.6103 461.391 66.1802 461.391 72.6702C461.461 78.7402 459.731 83.9403 456.211 88.2803C452.681 92.6203 447.321 95.0702 440.131 95.6302L464.571 123.03H452.931L429.871 96.3702ZM448.011 83.8303C450.801 80.9703 452.191 77.3202 452.191 72.8802C452.261 68.7902 450.891 65.1602 448.061 61.9802C445.241 58.8102 441.321 57.2202 436.321 57.2202H411.881V88.1102H435.901C441.191 88.1202 445.221 86.6903 448.011 83.8303Z" fill="#006BFF"/>
<path d="M477.851 77.2701C482.961 72.1601 489.441 69.6001 497.261 69.6001C505.231 69.6001 511.751 72.1401 516.831 77.2201C521.911 82.3001 524.451 88.8901 524.451 97.0001C524.451 104.9 521.891 111.37 516.781 116.41C511.671 121.45 505.161 123.97 497.261 123.97C489.431 123.97 482.961 121.45 477.851 116.41C472.741 111.37 470.181 104.9 470.181 97.0001C470.181 88.9601 472.741 82.3901 477.851 77.2701ZM510.591 82.9801C507.061 79.3501 502.661 77.5302 497.371 77.5302C492.011 77.5302 487.581 79.3301 484.091 82.9301C480.601 86.5301 478.851 91.2201 478.851 97.0001C478.851 102.5 480.581 107.02 484.031 110.54C487.491 114.07 491.891 115.83 497.261 115.83C502.621 115.83 507.051 114.07 510.541 110.54C514.031 107.01 515.811 102.5 515.881 97.0001C515.881 91.2901 514.121 86.6201 510.591 82.9801Z" fill="#006BFF"/>
<path d="M577.57 123.03L577.15 114.67C572.71 120.67 566.64 123.73 558.95 123.87C552.18 123.87 546.69 121.7 542.5 117.36C538.3 113.02 536.2 107.11 536.2 99.6403V70.7603H544.88V99.5402C544.88 104.62 546.29 108.6 549.11 111.49C551.93 114.38 555.81 115.83 560.75 115.83C565.48 115.76 569.34 114.1 572.34 110.86C575.34 107.62 576.84 103.59 576.84 98.8002V70.7603H585.52V123.02H577.48H577.57V123.03Z" fill="#006BFF"/>
<path d="M616.08 70.8702H632.271V78.2803H615.98V105.89C615.98 112.59 618.73 115.94 624.23 115.94C626.56 115.94 628.991 115.31 631.531 114.04L634.07 121.23C630.54 122.85 627.161 123.7 623.911 123.77C612.911 123.98 607.411 118.02 607.411 105.89V78.2803H596.94V70.8702H607.411V56.4802L616.09 55.5303V70.8702H616.08Z" fill="#006BFF"/>
<path d="M644.961 49.76C646.861 48.81 648.771 48.83 650.671 49.81C652.571 50.8 653.531 52.49 653.531 54.89C653.531 57.29 652.581 58.96 650.671 59.91C648.771 60.86 646.861 60.85 644.961 59.86C643.061 58.87 642.101 57.18 642.101 54.78C642.101 52.39 643.061 50.72 644.961 49.76ZM643.371 123.03H652.051V70.55H643.371V123.03Z" fill="#006BFF"/>
<path d="M667.92 70.6602H675.85L676.27 79.0202C680.71 72.9502 686.67 69.9202 694.15 69.9202C700.92 69.9202 706.44 72.0902 710.71 76.4302C714.98 80.7702 717.11 86.6802 717.11 94.1502V123.03H708.43V94.2502C708.43 89.1702 707.02 85.1902 704.2 82.2902C701.38 79.4002 697.5 77.9502 692.56 77.9502C687.83 78.0202 683.97 79.6802 680.97 82.9202C677.97 86.1602 676.47 90.1902 676.47 94.9802V123.02H667.9V70.7602V70.6602H667.92Z" fill="#006BFF"/>
<path d="M743.41 142.5C746.97 144.9 751.36 146.13 756.58 146.2C761.66 146.2 766 145.19 769.59 143.18C773.19 141.17 774.99 138.05 774.99 133.82C774.99 129.8 773.24 126.7 769.75 124.51C766.26 122.32 761.9 121.23 756.68 121.23C748.36 121.23 741.67 118.94 736.63 114.35C731.59 109.77 729.07 103.45 729.07 95.4101C729.07 87.3001 731.84 80.9501 737.37 76.3701C742.91 71.7801 749.34 69.4901 756.68 69.4901C762.82 69.4901 767.75 70.7901 771.49 73.4001L777.1 66.6301L783.24 71.5001L777.31 78.4801C781.82 83.5601 784.08 89.2001 784.08 95.4101C784.08 100.21 782.83 104.56 780.32 108.48C777.82 112.39 774.17 115.13 769.37 116.68C778.96 119.5 783.76 125.18 783.76 133.71C783.76 140.13 781.08 145.14 775.72 148.73C770.36 152.33 763.94 154.13 756.46 154.13C748.42 154.13 741.91 152.14 736.94 148.15C731.97 144.16 729.55 138.72 729.69 131.8H738.05C738.07 136.54 739.85 140.1 743.41 142.5ZM743.14 108.85C746.74 112.02 751.29 113.61 756.79 113.61C762.29 113.61 766.81 111.86 770.33 108.37C773.86 104.88 775.62 100.59 775.62 95.5201C775.62 89.8101 773.77 85.3601 770.07 82.1901C766.37 79.0201 761.91 77.4301 756.69 77.4301C751.61 77.4301 747.17 79.0001 743.36 82.1401C739.55 85.2801 737.65 89.7001 737.65 95.4201C737.71 101.2 739.55 105.68 743.14 108.85Z" fill="#006BFF"/>
<path d="M798.69 113.24C800.59 112.29 802.5 112.31 804.4 113.29C806.3 114.28 807.26 115.97 807.26 118.37C807.26 120.77 806.31 122.44 804.4 123.4C802.5 124.35 800.59 124.33 798.69 123.35C796.79 122.36 795.83 120.67 795.83 118.27C795.83 115.87 796.78 114.2 798.69 113.24Z" fill="#006BFF"/>
<path d="M865.031 123.24L864.821 113.72C862.851 117.18 860.091 119.8 856.571 121.6C853.041 123.4 849.381 124.3 845.571 124.3C837.881 124.3 831.501 121.81 826.421 116.84C821.341 111.87 818.801 105.22 818.801 96.9002C818.801 88.6502 821.361 82.0702 826.471 77.1702C831.581 72.2702 837.981 69.8502 845.671 69.9202C849.691 69.9202 853.461 70.8202 856.991 72.6202C860.521 74.4202 863.201 76.9702 865.031 80.2902L865.141 70.7702H873.601V123.03H865.241L865.031 123.24ZM845.981 78.1702C840.691 78.1702 836.251 79.9202 832.651 83.4102C829.051 86.9002 827.251 91.5002 827.251 97.2202C827.251 102.93 829.051 107.55 832.651 111.08C836.251 114.61 840.691 116.37 845.981 116.37C849.441 116.37 852.521 115.66 855.241 114.25C857.961 112.84 860.021 111.01 861.431 108.75C862.841 106.49 863.861 104.01 864.501 101.29C865.141 98.5702 865.131 95.8602 864.501 93.1402C863.871 90.4202 862.841 87.9402 861.431 85.6802C860.021 83.4202 857.971 81.5902 855.291 80.1802C852.611 78.7702 849.541 78.0602 846.091 78.0602L845.981 78.1702Z" fill="#006BFF"/>
<path d="M891.051 49.76C892.951 48.81 894.86 48.83 896.76 49.81C898.66 50.8 899.62 52.49 899.62 54.89C899.62 57.29 898.67 58.96 896.76 59.91C894.86 60.86 892.951 60.85 891.051 59.86C889.151 58.87 888.19 57.18 888.19 54.78C888.2 52.39 889.151 50.72 891.051 49.76ZM889.47 123.03H898.151V70.55H889.47V123.03Z" fill="#006BFF"/>
</svg>
